<?xml version="1.0" encoding="UTF-8"?>
<svg width="1024px" height="738px" viewBox="0 0 1024 738" version="1.1" xmlns="http://www.w3.org/2000/svg" xmlns:xlink="http://www.w3.org/1999/xlink">
    <title>Artboard Copy 2</title>
    <defs>
        <linearGradient x1="50%" y1="0%" x2="50%" y2="77.0796603%" id="linearGradient-1">
            <stop stop-color="#000000" stop-opacity="0" offset="0%"></stop>
            <stop stop-color="#000000" offset="100%"></stop>
        </linearGradient>
    </defs>
    <g id="Artboard-Copy-2" stroke="none" stroke-width="1" fill="none" fill-rule="evenodd">
        <rect id="Rectangle" fill="#191819" x="0" y="0" width="1600" height="1082"></rect>
        <text id="if-(isNumber-(button" font-family="Menlo-Regular, Menlo" font-size="14" font-weight="normal" letter-spacing="-0.45325">
            <tspan x="449" y="329" fill="#F879AF">if</tspan>
            <tspan x="464.950922" y="329" fill="#919EB1"> </tspan>
            <tspan x="472.926383" y="329" fill="#30B0BF">(</tspan>
            <tspan x="480.901844" y="329" fill="#A399EC">isNumber</tspan>
            <tspan x="544.705531" y="329" fill="#919EB1"> </tspan>
            <tspan x="552.680992" y="329" fill="#00B3C2">(</tspan>
            <tspan x="560.656453" y="329" fill="#E0E0E1">buttonName</tspan>
            <tspan x="640.411063" y="329" fill="#00B6C4">))</tspan>
            <tspan x="656.361984" y="329" fill="#919EB1"> </tspan>
            <tspan x="664.337445" y="329" fill="#00B9C6">{</tspan>
        </text>
        <text id="7" font-family="GoogleSans-Medium, Google Sans" font-size="14" font-weight="400" letter-spacing="-0.45325" fill="#919EB1">
            <tspan x="432" y="329">7</tspan>
        </text>
        <text id="9" font-family="GoogleSans-Medium, Google Sans" font-size="14" font-weight="400" letter-spacing="-0.45325" fill="#919EB1">
            <tspan x="432" y="383">9</tspan>
        </text>
        <text id="10" font-family="GoogleSans-Medium, Google Sans" font-size="14" font-weight="400" letter-spacing="-0.45325" fill="#919EB1">
            <tspan x="425" y="410">10</tspan>
        </text>
        <text id="11" font-family="GoogleSans-Medium, Google Sans" font-size="14" font-weight="400" letter-spacing="-0.45325" fill="#919EB1">
            <tspan x="429" y="437">11</tspan>
        </text>
        <text id="12" font-family="GoogleSans-Medium, Google Sans" font-size="14" font-weight="400" letter-spacing="-0.45325" fill="#919EB1">
            <tspan x="427" y="464">12</tspan>
        </text>
        <text id="13" font-family="GoogleSans-Medium, Google Sans" font-size="14" font-weight="400" letter-spacing="-0.45325" fill="#919EB1">
            <tspan x="427" y="491">13</tspan>
        </text>
        <text id="14" font-family="GoogleSans-Medium, Google Sans" font-size="14" font-weight="400" letter-spacing="-0.45325" fill="#919EB1">
            <tspan x="426" y="518">14</tspan>
        </text>
        <text id="15" font-family="GoogleSans-Medium, Google Sans" font-size="14" font-weight="400" letter-spacing="-0.45325" fill="#919EB1">
            <tspan x="426" y="545">15</tspan>
        </text>
        <text id="8" font-family="GoogleSans-Medium, Google Sans" font-size="14" font-weight="400" letter-spacing="-0.45325" fill="#919EB1">
            <tspan x="432" y="356">8</tspan>
        </text>
        <text id="if-(buttonName-===-“" font-family="Menlo-Regular, Menlo" font-size="14" font-weight="normal" letter-spacing="-0.45325">
            <tspan x="459" y="356" fill="#F879AF">if</tspan>
            <tspan x="474.950922" y="356" fill="#00B3C2"> (</tspan>
            <tspan x="490.901844" y="356" fill="#E0E0E1">buttonName</tspan>
            <tspan x="570.656453" y="356" fill="#A399EC"> </tspan>
            <tspan x="578.631914" y="356" fill="#00B6C4">===</tspan>
            <tspan x="602.558297" y="356" fill="#A399EC"> </tspan>
            <tspan x="610.533758" y="356" fill="#99CF71">“0”</tspan>
            <tspan x="634.460141" y="356" fill="#A399EC"> </tspan>
            <tspan x="642.435602" y="356" fill="#00B9C6">&amp;&amp;</tspan>
            <tspan x="658.386523" y="356" fill="#A399EC"> </tspan>
            <tspan x="666.361984" y="356" fill="#DFE0E0">obj.next</tspan>
            <tspan x="730.165672" y="356" fill="#A399EC"> </tspan>
            <tspan x="738.141133" y="356" fill="#00B9C7">===</tspan>
            <tspan x="762.067516" y="356" fill="#A399EC"> </tspan>
            <tspan x="770.042977" y="356" fill="#8AD264">“0” </tspan>
            <tspan x="801.94482" y="356" fill="#00B6C4">) {</tspan>
        </text>
        <text id="if-(obj.operation-)" font-family="Menlo-Regular, Menlo" font-size="14" font-weight="normal" letter-spacing="-0.45325">
            <tspan x="459" y="464" fill="#F879AF">if</tspan>
            <tspan x="474.950922" y="464" fill="#00B3C2"> (</tspan>
            <tspan x="490.901844" y="464" fill="#E0E0E1">obj.operation</tspan>
            <tspan x="594.582836" y="464" fill="#8AD264"> </tspan>
            <tspan x="602.558297" y="464" fill="#00B6C4">) {</tspan>
        </text>
        <text id="}" font-family="Menlo-Regular, Menlo" font-size="14" font-weight="normal" letter-spacing="-0.45325" fill="#00B6C4">
            <tspan x="459" y="545">}</tspan>
        </text>
        <text id="if-(obj.next-)-{" font-family="Menlo-Regular, Menlo" font-size="14" font-weight="normal" letter-spacing="-0.45325">
            <tspan x="469" y="491" fill="#F879AF">if</tspan>
            <tspan x="484.950922" y="491" fill="#00B3C2"> (</tspan>
            <tspan x="500.901844" y="491" fill="#E0E0E1">obj.next</tspan>
            <tspan x="564.705531" y="491" fill="#8AD264"> </tspan>
            <tspan x="572.680992" y="491" fill="#00B6C4">) {</tspan>
        </text>
        <text id="return-{next:-obj.ne" font-family="Menlo-Regular, Menlo" font-size="14" font-weight="normal" letter-spacing="-0.45325">
            <tspan x="479" y="518" fill="#F879AF">return</tspan>
            <tspan x="526.852766" y="518" fill="#00B3C2"> {</tspan>
            <tspan x="542.803688" y="518" fill="#E0E0E1">next</tspan>
            <tspan x="574.705531" y="518" fill="#00BFCD">:</tspan>
            <tspan x="582.680992" y="518" fill="#E0E0E1"> obj</tspan>
            <tspan x="614.582836" y="518" fill="#00BECC">.</tspan>
            <tspan x="622.558297" y="518" fill="#E0E0E1">next </tspan>
            <tspan x="662.435602" y="518" fill="#00BCCA">+</tspan>
            <tspan x="670.411063" y="518" fill="#E0E0E1"> buttonName </tspan>
            <tspan x="766.116594" y="518" fill="#00B9C7">}</tspan>
            <tspan x="774.092055" y="518" fill="#8AD264"> </tspan>
            <tspan x="782.067516" y="518" fill="#00B6C4">;</tspan>
        </text>
        <text id="//-If-there-is-an-op" font-family="Menlo-Regular, Menlo" font-size="14" font-weight="normal" letter-spacing="-0.45325" fill="#7F8090">
            <tspan x="459" y="437">// If there is an operation, update next</tspan>
        </text>
        <g id="Group-13" transform="translate(426.000000, 679.000000)">
            <text id="Console" font-family="GoogleSans-Medium, Google Sans" font-size="14" font-weight="400" letter-spacing="-0.45325" fill="#7C7B7C">
                <tspan x="24" y="14">Console</tspan>
            </text>
            <circle id="Oval" fill="#0D0C0D" cx="9" cy="9" r="9"></circle>
            <text id="0" font-family="GoogleSans-Regular, Google Sans" font-size="12" font-weight="normal" letter-spacing="-0.3885" fill="#7C7B7C">
                <tspan x="5" y="13">0</tspan>
            </text>
        </g>
        <g id="Group-13-Copy" transform="translate(537.000000, 679.000000)">
            <text id="Problem" font-family="GoogleSans-Medium, Google Sans" font-size="14" font-weight="400" letter-spacing="-0.45325" fill="#7C7B7C">
                <tspan x="24" y="14">Problem</tspan>
            </text>
            <circle id="Oval" fill="#0D0C0D" cx="9" cy="9" r="9"></circle>
            <text id="0" font-family="GoogleSans-Regular, Google Sans" font-size="12" font-weight="normal" letter-spacing="-0.3885" fill="#7C7B7C">
                <tspan x="5" y="13">0</tspan>
            </text>
        </g>
        <g id="Group-13-Copy-2" transform="translate(649.000000, 679.000000)">
            <text id="React-DevTools" font-family="GoogleSans-Medium, Google Sans" font-size="14" font-weight="400" letter-spacing="-0.45325" fill="#7C7B7C">
                <tspan x="24" y="14">React DevTools</tspan>
            </text>
            <circle id="Oval" fill="#0D0C0D" cx="9" cy="9" r="9"></circle>
            <text id="0" font-family="GoogleSans-Regular, Google Sans" font-size="12" font-weight="normal" letter-spacing="-0.3885" fill="#7C7B7C">
                <tspan x="5" y="13">0</tspan>
            </text>
        </g>
        <text id="}" font-family="Menlo-Regular, Menlo" font-size="14" font-weight="normal" letter-spacing="-0.45325" fill="#00B6C4">
            <tspan x="459" y="410">}</tspan>
        </text>
        <text id="return-{}-;" font-family="Menlo-Regular, Menlo" font-size="14" font-weight="normal" letter-spacing="-0.45325">
            <tspan x="469" y="383" fill="#F879AF">return</tspan>
            <tspan x="516.852766" y="383" fill="#00B3C2"> </tspan>
            <tspan x="524.828227" y="383" fill="#00B6C4"> {} ;</tspan>
        </text>
        <text id="//-Open-Preview-(CMD" font-family="Menlo-Regular, Menlo" font-size="14" font-weight="normal" letter-spacing="-0.45325" fill="#7F8090">
            <tspan x="450" y="248">// Open Preview (CMD + P)</tspan>
        </text>
        <text id="//-API-Reference" font-family="Menlo-Regular, Menlo" font-size="14" font-weight="normal" letter-spacing="-0.45325" fill="#7F8090">
            <tspan x="450" y="275">// API Reference</tspan>
        </text>
        <text id="1-copy" font-family="GoogleSans-Medium, Google Sans" font-size="14" font-weight="400" letter-spacing="-0.45325" fill="#919EB1">
            <tspan x="434" y="167">1</tspan>
        </text>
        <text id="3-copy" font-family="GoogleSans-Medium, Google Sans" font-size="14" font-weight="400" letter-spacing="-0.45325" fill="#919EB1">
            <tspan x="432" y="221">3</tspan>
        </text>
        <text id="4-copy" font-family="GoogleSans-Medium, Google Sans" font-size="14" font-weight="400" letter-spacing="-0.45325" fill="#919EB1">
            <tspan x="431" y="248">4</tspan>
        </text>
        <text id="5-copy" font-family="GoogleSans-Medium, Google Sans" font-size="14" font-weight="400" letter-spacing="-0.45325" fill="#919EB1">
            <tspan x="432" y="275">5</tspan>
        </text>
        <text id="6-copy" font-family="GoogleSans-Medium, Google Sans" font-size="14" font-weight="400" letter-spacing="-0.45325" fill="#919EB1">
            <tspan x="432" y="302">6</tspan>
        </text>
        <text id="2-copy" font-family="GoogleSans-Medium, Google Sans" font-size="14" font-weight="400" letter-spacing="-0.45325" fill="#919EB1">
            <tspan x="432" y="194">2</tspan>
        </text>
        <text id="import-*-as-React-fr" font-family="Menlo-Regular, Menlo" font-size="14" font-weight="normal" letter-spacing="-0.45325">
            <tspan x="450" y="167" fill="#A399EC">import</tspan>
            <tspan x="497.852766" y="167" fill="#F879AF"> * </tspan>
            <tspan x="521.779148" y="167" fill="#00B6C4">as</tspan>
            <tspan x="537.73007" y="167" fill="#F879AF"> </tspan>
            <tspan x="545.705531" y="167" fill="#E0E0E1">React</tspan>
            <tspan x="585.582836" y="167" fill="#F879AF"> </tspan>
            <tspan x="593.558297" y="167" fill="#00B9C7">from</tspan>
            <tspan x="625.460141" y="167" fill="#F879AF"> </tspan>
            <tspan x="633.435602" y="167" fill="#A596F2">“react”</tspan>
            <tspan x="689.263828" y="167" fill="#919EB1"> </tspan>
        </text>
        <text id="import-{-Frame,-useR" font-family="Menlo-Regular, Menlo" font-size="14" font-weight="normal" letter-spacing="-0.45325">
            <tspan x="450" y="194" fill="#A399EC">import</tspan>
            <tspan x="497.852766" y="194" fill="#F879AF"> </tspan>
            <tspan x="505.828227" y="194" fill="#00B6C4">{ </tspan>
            <tspan x="521.779148" y="194" fill="#E0E0E1">Frame, useRectangle</tspan>
            <tspan x="673.312906" y="194" fill="#00B6C4"> }</tspan>
            <tspan x="689.263828" y="194" fill="#F879AF"> </tspan>
            <tspan x="697.239289" y="194" fill="#00B9C7">from</tspan>
            <tspan x="729.141133" y="194" fill="#F879AF">  </tspan>
            <tspan x="745.092055" y="194" fill="#A596F2">“react”</tspan>
        </text>
        <rect id="Rectangle" fill="#0D0C0D" x="403" y="80" width="105" height="38" rx="8"></rect>
        <g id="Group-12" transform="translate(415.000000, 89.000000)">
            <g id="noun_ReactJS_3451802" transform="translate(0.000000, 1.000000)" fill="#7F8090" fill-rule="nonzero">
                <g id="Group">
                    <path d="M8.50009107,6.07142022 C7.49772857,6.07142022 6.6786625,6.89051665 6.6786625,7.89284879 C6.6786625,8.89515057 7.49772857,9.71427736 8.50009107,9.71427736 C9.50242321,9.71427736 10.3215196,8.89515057 10.3215196,7.89284879 C10.3215196,6.89051665 9.50242321,6.07142022 8.50009107,6.07142022 Z" id="Path"></path>
                    <path d="M0,7.8929095 C0,8.45472915 0.2824125,8.97350236 0.736980357,9.41134343 C1.19157857,9.8491845 1.82321964,10.2225774 2.58982857,10.534922 C4.12307679,11.1594899 6.20326964,11.5357666 8.5,11.5357666 C10.7967304,11.5357666 12.8769536,11.1594899 14.4101411,10.534922 C15.1767804,10.2225774 15.8084214,9.8491845 16.2630196,9.41134343 C16.7175875,8.97350236 17,8.45472915 17,7.8929095 C17,7.33108986 16.7175875,6.8117095 16.2630196,6.37386843 C15.8084214,5.93596665 15.1767804,5.56257379 14.4101411,5.2502595 C12.8769536,4.62569165 10.7967304,4.25005236 8.5,4.25005236 C6.20326964,4.25005236 4.12307679,4.62569165 2.58982857,5.2502595 C1.82321964,5.56257379 1.19157857,5.93596665 0.736980357,6.37386843 C0.2824125,6.8117095 0,7.33108986 0,7.8929095 Z M0.60775,7.8929095 C0.60775,7.532722 0.784246429,7.17305057 1.15915714,6.81201307 C1.5340375,6.45094522 2.10271786,6.10545057 2.81929821,5.81356665 C4.25245893,5.22967736 6.27017679,4.85774165 8.5,4.85774165 C10.7298232,4.85774165 12.7475411,5.22967736 14.1807018,5.81356665 C14.8972821,6.10545057 15.4659625,6.45094522 15.8408429,6.81201307 C16.2157536,7.17305057 16.39225,7.532722 16.39225,7.8929095 C16.39225,8.25306665 16.2157536,8.61210057 15.8408429,8.97319879 C15.4659625,9.33423629 14.8972821,9.68033807 14.1807018,9.97225236 C12.7475411,10.5560809 10.7298232,10.9274399 8.5,10.9274399 C6.27017679,10.9274399 4.25245893,10.5560809 2.81929821,9.97225236 C2.10271786,9.68033807 1.5340375,9.33423629 1.15915714,8.97319879 C0.784246429,8.61210057 0.60775,8.25306665 0.60775,7.8929095 Z" id="Shape"></path>
                    <path d="M12.9309286,15.560122 C13.4203161,15.2778613 13.7210643,14.7617291 13.8614054,14.1343684 C14.0017464,13.5070077 13.9943089,12.7525416 13.8644411,11.906397 C13.6037339,10.2141077 12.8436821,8.15070236 11.6460929,6.07855415 C10.4485036,4.00640593 9.03971964,2.317122 7.70303393,1.24545415 C7.03469107,0.709589859 6.38435,0.325936288 5.77031607,0.133654145 C5.15628214,-0.0585976405 4.55845893,-0.0565029977 4.06907143,0.225757717 C3.57968393,0.508048788 3.27945179,1.02387736 3.13911071,1.65123807 C2.9988,2.27859879 3.00620714,3.03306486 3.136075,3.87917915 C3.3968125,5.57146843 4.15686429,7.63490415 5.35445357,9.70705236 C6.55204286,11.7792006 7.96079643,13.4684541 9.29748214,14.540122 C9.965825,15.0760166 10.6161661,15.4596399 11.2302,15.651922 C11.8442339,15.8442041 12.4415714,15.8423827 12.9309286,15.560122 L12.9309286,15.560122 Z M12.6265375,15.0334559 C12.3200518,15.2102559 11.9199446,15.2311113 11.4112804,15.0718274 C10.9025857,14.9125434 10.3054607,14.5699631 9.67791786,14.0667934 C8.42277143,13.0605149 7.04646964,11.4202274 5.88087679,9.40342022 C4.71528393,7.38658272 3.98146071,5.37575593 3.73663036,3.78671129 C3.61423036,2.9922345 3.61580893,2.30434165 3.73207679,1.78462736 C3.84834464,1.26494343 4.06649107,0.929223788 4.37297679,0.752423788 C4.67949286,0.575684502 5.0796,0.554829145 5.58826429,0.714052359 C6.09692857,0.873336288 6.69456964,1.21564343 7.32214286,1.71875236 C8.57725893,2.72506129 9.95304464,4.36565236 11.1186375,6.38248986 C12.2842304,8.399297 13.0186,10.4098202 13.2634,11.9988345 C13.3858,12.793372 13.3837054,13.4815381 13.2673464,14.0012524 C13.1510786,14.5209363 12.9329625,14.8566559 12.6264464,15.0334559 L12.6265375,15.0334559 Z" id="Shape"></path>
                    <path d="M4.06910179,15.560122 C3.57971429,15.2778309 3.27896607,14.7616988 3.13859464,14.1343077 C2.99825357,13.5069166 3.00541786,12.7529666 3.13555893,11.9067916 C3.39626607,10.2144416 4.15665179,8.1504595 5.35424107,6.07822022 C6.55186071,4.00601129 7.96061429,2.316697 9.29733036,1.24496843 C9.96570357,0.709104145 10.6157411,0.325936288 11.229775,0.133654145 C11.8438393,-0.0585976405 12.4416625,-0.0565029977 12.9310804,0.225788074 C13.4204679,0.508048788 13.7207,1.02390772 13.8610411,1.65129879 C14.0013518,2.2786595 13.9942482,3.03263986 13.8640768,3.87881486 C13.6033393,5.5711345 12.8432875,7.63460057 11.6456679,9.70683986 C10.4480786,11.7790488 9.03899107,13.4688791 7.702275,14.5405774 C7.03393214,15.0765024 6.38383393,15.4596399 5.76983036,15.651922 C5.15579643,15.8442041 4.55845893,15.8423827 4.06907143,15.560122 L4.06910179,15.560122 Z M4.37349286,15.0334256 C4.68000893,15.2101952 5.0798125,15.231597 5.58847679,15.0722827 C6.09717143,14.9130595 6.6946,14.569872 7.32217321,14.0667631 C8.57731964,13.0604541 9.95362143,11.4200756 11.1192446,9.40317736 C12.2848679,7.3863095 13.0184179,5.37596843 13.2632179,3.78689343 C13.3856179,2.99232557 13.3843429,2.30391665 13.268075,1.784172 C13.1518375,1.26445772 12.9336911,0.928768431 12.6272054,0.751968431 C12.3206893,0.575198788 11.9205821,0.554313074 11.4119179,0.713597002 C10.9032232,0.872880931 10.3052786,1.21567379 9.67770536,1.71887379 C8.42255893,2.72518272 7.04704643,4.36528807 5.88145357,6.38218629 C4.71583036,8.3990845 3.98146071,10.4096684 3.73663036,11.9987434 C3.61423036,12.7932506 3.61602143,13.4819631 3.73238036,14.0017077 C3.84864821,14.5213916 4.06706786,14.8566256 4.37358393,15.0334256 L4.37349286,15.0334256 Z" id="Shape"></path>
                </g>
            </g>
            <text id="Data.js" font-family="GoogleSans-Regular, Google Sans" font-size="16" font-weight="normal" letter-spacing="-0.517999983" fill="#FFFFFF">
                <tspan x="24" y="15">Data.js</tspan>
            </text>
        </g>
        <rect id="Rectangle" fill="#2D2D37" x="403" y="128" width="1171" height="2"></rect>
        <rect id="Rectangle" fill="#292932" x="0" y="70" width="102" height="1012"></rect>
        <g id="Group" transform="translate(43.000000, 128.000000)" fill-rule="nonzero">
            <g id="noun_App_1935373" transform="translate(0.000000, 159.813951)" fill="#FFFFFF">
                <path d="M5.14440961,8.60989643 L2.74273772,8.60989643 C1.22215256,8.60989643 0,7.38644034 0,5.8957927 L0,3.51919409 C0,2.01448373 1.23636364,0.805090356 2.74273772,0.805090356 L5.13019854,0.805090356 C6.6507837,0.805090356 7.87293626,2.02854644 7.87293626,3.51919409 L7.87293626,5.88172998 C7.88714734,7.38644034 6.6507837,8.60989643 5.14440961,8.60989643 L5.14440961,8.60989643 Z M2.74273772,2.21136172 C2.01797283,2.21136172 1.42110763,2.80199569 1.42110763,3.51919409 L1.42110763,5.88172998 C1.42110763,6.59892838 2.01797283,7.18956235 2.74273772,7.18956235 L5.13019854,7.18956235 C5.85496343,7.18956235 6.45182863,6.59892838 6.45182863,5.88172998 L6.45182863,3.51919409 C6.45182863,2.80199569 5.85496343,2.21136172 5.13019854,2.21136172 L2.74273772,2.21136172 Z M5.14440961,16.9350229 L2.74273772,16.9350229 C1.22215256,16.9350229 0,15.7115668 0,14.2209192 L0,11.8583833 C0,10.3536729 1.23636364,9.14427955 2.74273772,9.14427955 L5.13019854,9.14427955 C6.6507837,9.14427955 7.87293626,10.3677356 7.87293626,11.8583833 L7.87293626,14.2209192 C7.88714734,15.7115668 6.6507837,16.9350229 5.14440961,16.9350229 L5.14440961,16.9350229 Z M2.74273772,10.5364882 C2.01797283,10.5364882 1.42110763,11.1271222 1.42110763,11.8443206 L1.42110763,14.2068565 C1.42110763,14.9240549 2.01797283,15.5146888 2.74273772,15.5146888 L5.13019854,15.5146888 C5.85496343,15.5146888 6.45182863,14.9240549 6.45182863,14.2068565 L6.45182863,11.8443206 C6.45182863,11.1271222 5.85496343,10.5364882 5.13019854,10.5364882 L2.74273772,10.5364882 Z M13.6142111,16.9350229 L11.2267503,16.9350229 C9.7061651,16.9350229 8.48401254,15.7115668 8.48401254,14.2209192 L8.48401254,11.8583833 C8.48401254,10.3536729 9.72037618,9.14427955 11.2267503,9.14427955 L13.6142111,9.14427955 C15.1347962,9.14427955 16.3569488,10.3677356 16.3569488,11.8583833 L16.3569488,14.2209192 C16.3569488,15.7115668 15.1205852,16.9350229 13.6142111,16.9350229 Z M11.2125392,10.5364882 C10.4877743,10.5364882 9.89090909,11.1271222 9.89090909,11.8443206 L9.89090909,14.2068565 C9.89090909,14.9240549 10.4877743,15.5146888 11.2125392,15.5146888 L13.6,15.5146888 C14.3247649,15.5146888 14.9216301,14.9240549 14.9216301,14.2068565 L14.9216301,11.8443206 C14.9216301,11.1271222 14.3247649,10.5364882 13.6,10.5364882 L11.2125392,10.5364882 Z" id="Shape"></path>
                <path d="M12.5768025,8.76458628 C11.8804598,8.76458628 11.169906,8.49739472 10.6298851,7.9630116 L8.93876698,6.30361139 C7.87293626,5.24890787 7.87293626,3.51919409 8.93876698,2.46449057 L10.6298851,0.791027643 C11.6957158,-0.263675881 13.4436782,-0.263675881 14.5095089,0.791027643 L16.200627,2.46449057 C17.2664577,3.51919409 17.2664577,5.24890787 16.200627,6.30361139 L14.5095089,7.97707432 C13.9836991,8.51145744 13.2731452,8.76458628 12.5768025,8.76458628 L12.5768025,8.76458628 Z M12.5768025,1.39572433 C12.2357367,1.39572433 11.8946708,1.52228875 11.6388715,1.7754176 L9.9477534,3.44888052 C9.43615465,3.95513821 9.43615465,4.78483832 9.9477534,5.30515872 L11.6388715,6.97862165 C12.1504702,7.48487934 12.9889237,7.48487934 13.5147335,6.97862165 L15.2058516,5.30515872 C15.7174504,4.79890103 15.7174504,3.96920093 15.2058516,3.44888052 L13.5147335,1.7754176 C13.2589342,1.52228875 12.9178683,1.39572433 12.5768025,1.39572433 Z" id="Shape"></path>
            </g>
            <g id="noun_copy_1935346" transform="translate(1.700000, 211.963767)" fill="#7F8090">
                <path d="M8.5664995,16.0362328 L2.37352056,16.0362328 C1.06399198,16.0362328 0,14.9833489 0,13.6874917 L0,5.02144665 C0,3.72558945 1.06399198,2.67270547 2.37352056,2.67270547 L8.5664995,2.67270547 C9.87602808,2.67270547 10.9400201,3.72558945 10.9400201,5.02144665 L10.9400201,13.6874917 C10.9400201,14.9833489 9.87602808,16.0362328 8.5664995,16.0362328 L8.5664995,16.0362328 Z M2.37352056,4.02255672 C1.81424273,4.02255672 1.36409228,4.46800764 1.36409228,5.02144665 L1.36409228,13.6874917 C1.36409228,14.2409307 1.81424273,14.6863816 2.37352056,14.6863816 L8.5664995,14.6863816 C9.12577733,14.6863816 9.57592778,14.2409307 9.57592778,13.6874917 L9.57592778,5.02144665 C9.57592778,4.46800764 9.12577733,4.02255672 8.5664995,4.02255672 L2.37352056,4.02255672 Z" id="Shape"></path>
                <path d="M12.9179539,12.5131211 C12.536008,12.5131211 12.2359077,12.2161538 12.2359077,11.8381955 L12.2359077,3.8875716 C12.2359077,2.4837263 11.0900702,1.34985125 9.67141424,1.34985125 L4.21504514,1.34985125 C3.8330993,1.34985125 3.532999,1.05288397 3.532999,0.674925625 C3.532999,0.296967275 3.8330993,0 4.21504514,0 L9.67141424,0 C11.840321,0 13.6,1.74130811 13.6,3.8875716 L13.6,11.8381955 C13.6,12.2026553 13.2998997,12.5131211 12.9179539,12.5131211 L12.9179539,12.5131211 Z" id="Path"></path>
            </g>
            <g id="noun_User_1935355" transform="translate(0.000000, 0.000000)" fill="#7F8090">
                <path d="M15.0659873,16.1205439 C14.6841646,16.1205439 14.384161,15.8236723 14.384161,15.4458358 C14.384161,15.0679993 14.6841646,14.7711277 15.0659873,14.7711277 C15.2568987,14.7711277 15.420537,14.6766686 15.5296292,14.5282328 C15.5841753,14.4472678 15.679631,14.2718437 15.5978118,14.0559371 C14.8205298,12.0318129 13.1977832,10.4260076 11.1386678,9.67033457 C10.7977546,9.54888712 10.5522972,9.25201556 10.4841145,8.88767319 C10.4295684,8.52333083 10.5659337,8.1454943 10.8523008,7.91609355 C11.7523115,7.18740882 12.2568629,6.10787588 12.2295899,4.96087213 C12.1886803,3.04470117 10.6341163,1.45239008 8.69772963,1.35793095 C7.66135365,1.3039543 6.67952377,1.66829667 5.91587831,2.36999308 C5.16586937,3.07168949 4.74313706,4.02977497 4.74313706,5.05533126 C4.74313706,6.17534669 5.24768853,7.2278913 6.13406272,7.92958771 C6.42042977,8.15898846 6.55679503,8.52333083 6.50224893,8.88767319 C6.44770282,9.25201556 6.18860883,9.54888712 5.84769567,9.68382874 C3.80221676,10.4395018 2.17947016,12.0318129 1.40218817,14.0559371 C1.32036901,14.2718437 1.40218817,14.4472678 1.4703708,14.5282328 C1.57946301,14.6766686 1.74310132,14.7711277 1.93401269,14.7711277 L10.8932103,14.7711277 C11.2750331,14.7711277 11.5750366,15.0679993 11.5750366,15.4458358 C11.5750366,15.8236723 11.2750331,16.1205439 10.8932103,16.1205439 L1.92037616,16.1205439 C1.29309596,16.1205439 0.693088812,15.8101782 0.338539133,15.2974 C-0.016010545,14.7846219 -0.0978297015,14.1503963 0.120354716,13.5701473 C0.97945586,11.3436106 2.68402162,9.56238128 4.87950232,8.6042958 C3.9249455,7.65970448 3.39312098,6.39125328 3.39312098,5.0418371 C3.39312098,3.63844428 3.95221855,2.34300476 4.98859453,1.38491928 C6.01133399,0.426833793 7.36135007,-0.072450191 8.77954878,0.00851477936 C11.4250348,0.143456397 13.5386964,2.30252227 13.606879,4.93388381 C13.6341521,6.32378247 13.1023276,7.64621032 12.1204977,8.61778996 C14.3023419,9.57587544 16.0205441,11.3571048 16.8796453,13.5836415 C17.0978297,14.1503963 17.0160105,14.798116 16.6614609,15.3108942 C16.2932747,15.8101782 15.706904,16.1205439 15.0659873,16.1205439 Z" id="Path"></path>
            </g>
            <g id="noun_Search_1935396" transform="translate(0.000000, 52.149816)" fill="#7F8090">
                <path d="M16.3041026,17.6745745 C16.1250937,17.6745745 15.9323148,17.6064436 15.7946156,17.4565558 L11.0026831,12.3467444 C10.8787538,12.2104828 10.8099042,12.0333426 10.8236741,11.8562025 C10.837444,11.6790624 10.9200636,11.5019222 11.0439929,11.3792868 C11.2505417,11.2021466 11.4433206,10.9977542 11.6223295,10.7933617 C13.4124192,8.68130633 13.3986493,5.50641015 11.5947897,3.40798092 C10.5207359,2.15437384 8.95096489,1.41856099 7.29857439,1.3776825 C5.64618389,1.33680401 4.04887307,2.00448604 2.91973956,3.20358846 C0.895561195,5.35652235 0.854251433,8.74943714 2.83712004,10.9296234 C3.96625354,12.1832304 5.57733428,12.8781648 7.25726463,12.8509125 L7.27103455,12.8509125 C7.64282241,12.8509125 7.95953059,13.1506881 7.95953059,13.5185945 C7.95953059,13.9001271 7.65659233,14.1999027 7.28480447,14.2135288 C5.20554642,14.2544073 3.2089079,13.3823329 1.80437597,11.8425763 C-0.64666994,9.13096973 -0.591590256,4.93411127 1.91453534,2.27700932 C3.30529734,0.791757457 5.27439603,-0.0394385378 7.32611423,0.00143995378 C9.36406252,0.0423184453 11.3056214,0.955271423 12.6413037,2.5086541 C14.8858008,5.1112514 14.8995707,9.03558659 12.6826134,11.65181 C12.6137638,11.733567 12.5449142,11.815324 12.4760646,11.8834548 L16.8135897,16.5163505 C17.0752182,16.7888738 17.0614483,17.2249111 16.7722799,17.4838082 C16.6483506,17.6200698 16.4693417,17.6745745 16.3041026,17.6745745 L16.3041026,17.6745745 Z" id="Path"></path>
            </g>
            <g id="noun_Bell_1935414" transform="translate(0.000000, 104.299631)" fill="#7F8090">
                <path d="M15.1306431,15.6748898 C14.7360458,15.6748898 14.4260051,15.3680859 14.4260051,14.9776082 C14.4260051,14.5871305 14.7360458,14.2803266 15.1306431,14.2803266 C15.3561272,14.2803266 15.5252403,14.1827072 15.5675186,14.0850878 C15.5816113,14.0571965 15.5816113,14.0432509 15.5675186,14.0153596 C15.3984055,13.7503926 15.1447358,13.6667189 14.5528399,13.4993713 C14.3837268,13.4575344 14.1864282,13.4017519 13.9891296,13.3320237 C13.2140279,13.0810023 12.7066885,12.4534489 12.7066885,11.7422217 L12.7066885,6.48471864 C12.7066885,4.69967781 10.8041661,3.26327777 8.47886086,3.26327777 C6.15355564,3.26327777 4.25103319,4.71362344 4.25103319,6.48471864 L4.25103319,11.7561673 C4.25103319,12.4673946 3.74369387,13.094948 2.96859213,13.3459693 C2.77129351,13.4156975 2.57399488,13.47148 2.40488178,13.5133169 C1.82707866,13.6806645 1.55931624,13.7643383 1.39020314,14.0293053 C1.37611038,14.0571965 1.37611038,14.0711422 1.39020314,14.0990334 C1.44657417,14.1966529 1.60159452,14.2942723 1.82707866,14.2942723 L11.1564851,14.2942723 C11.5510823,14.2942723 11.861123,14.6010762 11.861123,14.9915539 C11.861123,15.3820315 11.5510823,15.6888354 11.1564851,15.6888354 L1.86935694,15.6888354 C1.15062624,15.6888354 0.516452086,15.3401946 0.192318631,14.7823694 C-0.0754437878,14.3221635 -0.0613510289,13.7643383 0.220504149,13.3041324 C0.685565193,12.565014 1.37611038,12.3697751 2.05256281,12.1745363 C2.22167591,12.1326994 2.37669626,12.0769169 2.55990213,12.0211343 C2.75720075,11.9514062 2.86994282,11.8398411 2.86994282,11.7561673 L2.86994282,6.48471864 C2.86994282,3.93266808 5.39254666,1.86871462 8.50704638,1.86871462 C11.6074533,1.86871462 14.1441499,3.94661371 14.1441499,6.48471864 L14.1441499,11.7561673 C14.1441499,11.8398411 14.256892,11.9514062 14.4541906,12.0211343 C14.6233037,12.0769169 14.7924168,12.1187538 14.9474372,12.1745363 C15.6238896,12.3558295 16.3144348,12.5510683 16.7794959,13.3041324 C17.061351,13.7643383 17.0754438,14.3082179 16.8076814,14.7823694 C16.4835479,15.326249 15.8493738,15.6748898 15.1306431,15.6748898 Z M8.49295362,19.3565365 C7.30916187,19.3565365 6.30857599,18.5197986 6.11127737,17.3483656 C6.05490633,16.9718335 6.30857599,16.6092471 6.68908048,16.5534646 C7.06958497,16.4976821 7.4359967,16.7487034 7.49236774,17.1252355 C7.57692429,17.6133326 7.9856143,17.9619734 8.47886086,17.9619734 C8.97210742,17.9619734 9.39489019,17.6133326 9.46535398,17.1252355 C9.52172502,16.7487034 9.88813675,16.4837364 10.2686412,16.5534646 C10.6491457,16.6092471 10.9169082,16.9718335 10.8464444,17.3483656 C10.691424,18.5197986 9.69083813,19.3565365 8.49295362,19.3565365 Z M9.02847846,1.39456315 L7.97152154,1.39456315 C7.57692429,1.39456315 7.2668836,1.08775926 7.2668836,0.697281574 C7.2668836,0.306803893 7.57692429,0 7.97152154,0 L9.02847846,0 C9.42307571,0 9.7331164,0.306803893 9.7331164,0.697281574 C9.7331164,1.08775926 9.42307571,1.39456315 9.02847846,1.39456315 Z" id="Shape"></path>
            </g>
        </g>
        <rect id="Rectangle" fill="#000000" x="0" y="0" width="1024" height="70"></rect>
        <g id="Group-8" transform="translate(42.000000, 26.000000)" stroke-linecap="round" stroke-width="2.94">
            <line x1="10.5096818" y1="18" x2="13.3880028" y2="5.63605984e-13" id="Path-2-Copy" stroke="#F879AF"></line>
            <line x1="0.644155501" y1="4.59262562" x2="18" y2="4.59262562" id="Path-3" stroke="#2EB67C"></line>
            <line x1="0" y1="13.2683043" x2="17.3558445" y2="13.2683043" id="Path-3-Copy" stroke="#A399EC"></line>
            <line x1="4.06812675" y1="18" x2="6.94644777" y2="5.63605984e-13" id="Path-2" stroke="#36C5EF"></line>
        </g>
        <rect id="Rectangle" fill="#1F1F25" x="101" y="70" width="289" height="668"></rect>
        <g id="Group-9" transform="translate(125.000000, 153.000000)">
            <g id="Group-5" transform="translate(49.662917, 124.000000)">
                <g id="Group-6" transform="translate(25.000000, 0.000000)" font-family="GoogleSans-Regular, Google Sans" font-size="18" font-weight="normal" letter-spacing="-0.582749981">
                    <text id="Element.tsx">
                        <tspan x="0" y="17" fill="#ABAAAB">Element</tspan>
                        <tspan x="61.8007501" y="17" fill="#7C7B7C">.tsx</tspan>
                    </text>
                </g>
                <g id="noun_Command_3550554" transform="translate(0.000000, 3.000000)" fill="#7B7A7B" fill-rule="nonzero">
                    <path d="M2.71551724,9.56896552 C1.21577848,9.56896552 0,10.784744 0,12.2844828 C0,13.7842215 1.21577848,15 2.71551724,15 C4.215256,15 5.43103448,13.7842215 5.43103448,12.2844828 L5.43103448,11.1206897 L9.56896552,11.1206897 L9.56896552,12.2844828 C9.56896552,13.7842215 10.784744,15 12.2844828,15 C13.7842215,15 15,13.7842215 15,12.2844828 C15,10.784744 13.7842215,9.56896552 12.2844828,9.56896552 L11.1206897,9.56896552 L11.1206897,5.43103448 L12.2844828,5.43103448 C13.7842215,5.43103448 15,4.215256 15,2.71551724 C15,1.21577848 13.7842215,0 12.2844828,0 C10.784744,0 9.56896552,1.21577848 9.56896552,2.71551724 L9.56896552,3.87931034 L5.43103448,3.87931034 L5.43103448,2.71551724 C5.43103448,1.21577848 4.215256,0 2.71551724,0 C1.21577848,0 0,1.21577848 0,2.71551724 C0,4.215256 1.21577848,5.43103448 2.71551724,5.43103448 L3.87931034,5.43103448 L3.87931034,9.56896552 L2.71551724,9.56896552 Z M3.87931034,12.2844828 C3.87931034,12.9272279 3.35826242,13.4482759 2.71551724,13.4482759 C2.07277206,13.4482759 1.55172414,12.9272279 1.55172414,12.2844828 C1.55172414,11.6417376 2.07277206,11.1206897 2.71551724,11.1206897 L3.87931034,11.1206897 L3.87931034,12.2844828 Z M11.1206897,2.71551724 C11.1206897,2.07277206 11.6417376,1.55172414 12.2844828,1.55172414 C12.9272279,1.55172414 13.4482759,2.07277206 13.4482759,2.71551724 C13.4482759,3.35826242 12.9272279,3.87931034 12.2844828,3.87931034 L11.1206897,3.87931034 L11.1206897,2.71551724 Z M11.1206897,11.1206897 L12.2844828,11.1206897 C12.9272279,11.1206897 13.4482759,11.6417376 13.4482759,12.2844828 C13.4482759,12.9272279 12.9272279,13.4482759 12.2844828,13.4482759 C11.6417376,13.4482759 11.1206897,12.9272279 11.1206897,12.2844828 L11.1206897,11.1206897 Z M5.43103448,5.43103448 L9.56896552,5.43103448 L9.56896552,9.56896552 L5.43103448,9.56896552 L5.43103448,5.43103448 Z M2.71551724,3.87931034 C2.07277206,3.87931034 1.55172414,3.35826242 1.55172414,2.71551724 C1.55172414,2.07277206 2.07277206,1.55172414 2.71551724,1.55172414 C3.35826242,1.55172414 3.87931034,2.07277206 3.87931034,2.71551724 L3.87931034,3.87931034 L2.71551724,3.87931034 Z" id="Shape"></path>
                </g>
            </g>
            <text id="Button.tsx" font-family="GoogleSans-Regular, Google Sans" font-size="18" font-weight="normal" letter-spacing="-0.582749981">
                <tspan x="74.6629174" y="174" fill="#ABAAAB">Button</tspan>
                <tspan x="125.353167" y="174" fill="#7C7B7C">.tsx</tspan>
            </text>
            <g id="noun_Command_3550554-Copy" transform="translate(49.662917, 160.000000)" fill="#7B7A7B" fill-rule="nonzero">
                <path d="M2.71551724,9.56896552 C1.21577848,9.56896552 0,10.784744 0,12.2844828 C0,13.7842215 1.21577848,15 2.71551724,15 C4.215256,15 5.43103448,13.7842215 5.43103448,12.2844828 L5.43103448,11.1206897 L9.56896552,11.1206897 L9.56896552,12.2844828 C9.56896552,13.7842215 10.784744,15 12.2844828,15 C13.7842215,15 15,13.7842215 15,12.2844828 C15,10.784744 13.7842215,9.56896552 12.2844828,9.56896552 L11.1206897,9.56896552 L11.1206897,5.43103448 L12.2844828,5.43103448 C13.7842215,5.43103448 15,4.215256 15,2.71551724 C15,1.21577848 13.7842215,0 12.2844828,0 C10.784744,0 9.56896552,1.21577848 9.56896552,2.71551724 L9.56896552,3.87931034 L5.43103448,3.87931034 L5.43103448,2.71551724 C5.43103448,1.21577848 4.215256,0 2.71551724,0 C1.21577848,0 0,1.21577848 0,2.71551724 C0,4.215256 1.21577848,5.43103448 2.71551724,5.43103448 L3.87931034,5.43103448 L3.87931034,9.56896552 L2.71551724,9.56896552 Z M3.87931034,12.2844828 C3.87931034,12.9272279 3.35826242,13.4482759 2.71551724,13.4482759 C2.07277206,13.4482759 1.55172414,12.9272279 1.55172414,12.2844828 C1.55172414,11.6417376 2.07277206,11.1206897 2.71551724,11.1206897 L3.87931034,11.1206897 L3.87931034,12.2844828 Z M11.1206897,2.71551724 C11.1206897,2.07277206 11.6417376,1.55172414 12.2844828,1.55172414 C12.9272279,1.55172414 13.4482759,2.07277206 13.4482759,2.71551724 C13.4482759,3.35826242 12.9272279,3.87931034 12.2844828,3.87931034 L11.1206897,3.87931034 L11.1206897,2.71551724 Z M11.1206897,11.1206897 L12.2844828,11.1206897 C12.9272279,11.1206897 13.4482759,11.6417376 13.4482759,12.2844828 C13.4482759,12.9272279 12.9272279,13.4482759 12.2844828,13.4482759 C11.6417376,13.4482759 11.1206897,12.9272279 11.1206897,12.2844828 L11.1206897,11.1206897 Z M5.43103448,5.43103448 L9.56896552,5.43103448 L9.56896552,9.56896552 L5.43103448,9.56896552 L5.43103448,5.43103448 Z M2.71551724,3.87931034 C2.07277206,3.87931034 1.55172414,3.35826242 1.55172414,2.71551724 C1.55172414,2.07277206 2.07277206,1.55172414 2.71551724,1.55172414 C3.35826242,1.55172414 3.87931034,2.07277206 3.87931034,2.71551724 L3.87931034,3.87931034 L2.71551724,3.87931034 Z" id="Shape"></path>
            </g>
            <g id="Group-7" transform="translate(49.662917, 190.000000)">
                <g id="noun_Command_3550554-Copy-2" transform="translate(0.000000, 3.000000)" fill="#7B7A7B" fill-rule="nonzero">
                    <path d="M2.71551724,9.56896552 C1.21577848,9.56896552 0,10.784744 0,12.2844828 C0,13.7842215 1.21577848,15 2.71551724,15 C4.215256,15 5.43103448,13.7842215 5.43103448,12.2844828 L5.43103448,11.1206897 L9.56896552,11.1206897 L9.56896552,12.2844828 C9.56896552,13.7842215 10.784744,15 12.2844828,15 C13.7842215,15 15,13.7842215 15,12.2844828 C15,10.784744 13.7842215,9.56896552 12.2844828,9.56896552 L11.1206897,9.56896552 L11.1206897,5.43103448 L12.2844828,5.43103448 C13.7842215,5.43103448 15,4.215256 15,2.71551724 C15,1.21577848 13.7842215,0 12.2844828,0 C10.784744,0 9.56896552,1.21577848 9.56896552,2.71551724 L9.56896552,3.87931034 L5.43103448,3.87931034 L5.43103448,2.71551724 C5.43103448,1.21577848 4.215256,0 2.71551724,0 C1.21577848,0 0,1.21577848 0,2.71551724 C0,4.215256 1.21577848,5.43103448 2.71551724,5.43103448 L3.87931034,5.43103448 L3.87931034,9.56896552 L2.71551724,9.56896552 Z M3.87931034,12.2844828 C3.87931034,12.9272279 3.35826242,13.4482759 2.71551724,13.4482759 C2.07277206,13.4482759 1.55172414,12.9272279 1.55172414,12.2844828 C1.55172414,11.6417376 2.07277206,11.1206897 2.71551724,11.1206897 L3.87931034,11.1206897 L3.87931034,12.2844828 Z M11.1206897,2.71551724 C11.1206897,2.07277206 11.6417376,1.55172414 12.2844828,1.55172414 C12.9272279,1.55172414 13.4482759,2.07277206 13.4482759,2.71551724 C13.4482759,3.35826242 12.9272279,3.87931034 12.2844828,3.87931034 L11.1206897,3.87931034 L11.1206897,2.71551724 Z M11.1206897,11.1206897 L12.2844828,11.1206897 C12.9272279,11.1206897 13.4482759,11.6417376 13.4482759,12.2844828 C13.4482759,12.9272279 12.9272279,13.4482759 12.2844828,13.4482759 C11.6417376,13.4482759 11.1206897,12.9272279 11.1206897,12.2844828 L11.1206897,11.1206897 Z M5.43103448,5.43103448 L9.56896552,5.43103448 L9.56896552,9.56896552 L5.43103448,9.56896552 L5.43103448,5.43103448 Z M2.71551724,3.87931034 C2.07277206,3.87931034 1.55172414,3.35826242 1.55172414,2.71551724 C1.55172414,2.07277206 2.07277206,1.55172414 2.71551724,1.55172414 C3.35826242,1.55172414 3.87931034,2.07277206 3.87931034,2.71551724 L3.87931034,3.87931034 L2.71551724,3.87931034 Z" id="Shape"></path>
                </g>
                <text id="Index.tsx" font-family="GoogleSans-Regular, Google Sans" font-size="18" font-weight="normal" letter-spacing="-0.582749981">
                    <tspan x="25" y="17" fill="#ABAAAB">Index</tspan>
                    <tspan x="66.0422501" y="17" fill="#7C7B7C">.tsx</tspan>
                </text>
            </g>
            <g id="Group-10" transform="translate(50.662917, 223.000000)" font-family="GoogleSans-Regular, Google Sans" font-weight="normal">
                <text id="App.tsx" font-size="18" letter-spacing="-0.582749981">
                    <tspan x="21" y="17" fill="#ABAAAB">App</tspan>
                    <tspan x="52.7317501" y="17" fill="#7C7B7C">.tsx</tspan>
                </text>
                <text id="{-}" font-size="14" letter-spacing="-0.453249985" fill="#ABAAAB">
                    <tspan x="0" y="16">{ }</tspan>
                </text>
            </g>
            <g id="Group-11" transform="translate(50.662917, 256.000000)" font-family="GoogleSans-Regular, Google Sans" font-weight="normal">
                <text id="Data.js" font-size="18" letter-spacing="-0.582749981">
                    <tspan x="21" y="17" fill="#ABAAAB">Data</tspan>
                    <tspan x="56.6670001" y="17" fill="#7C7B7C">.js</tspan>
                </text>
                <text id="{-}" font-size="14" letter-spacing="-0.453249985" fill="#ABAAAB">
                    <tspan x="0" y="16">{ }</tspan>
                </text>
            </g>
            <g id="Group-4" transform="translate(1.662917, 0.000000)">
                <text id="Structure" font-family="GoogleSans-Regular, Google Sans" font-size="18" font-weight="normal" letter-spacing="-0.582749981" fill="#FFFFFF">
                    <tspan x="45" y="17">Structure</tspan>
                </text>
                <g id="noun_next-arrow_1439170-(33)" transform="translate(0.000000, 6.000000)" fill="#FFFFFF" fill-rule="nonzero">
                    <polygon id="Path" points="0.837082643 8.32583471 0 7.48875207 3.32583471 4.16291736 0 0.837082643 0.837082643 0 5 4.16291736"></polygon>
                </g>
                <g id="noun_Folder_1439161-(1)" transform="translate(17.000000, 4.000000)" fill="#00B6C4" fill-rule="nonzero">
                    <path d="M14.1757546,12.3519653 L1.82424536,12.3519653 C0.818402075,12.3519653 0,11.5335633 0,10.52772 L0,1.82424536 C0,0.818402075 0.818402075,0 1.82424536,0 L8.95978109,0 L10.7842545,1.59621469 L14.1757546,1.59621469 C15.1815979,1.59621469 16,2.41461677 16,3.42046005 L16,10.52772 C16,11.5335633 15.1815979,12.3519653 14.1757546,12.3519653 Z M1.82424536,1.36818402 C1.57272753,1.36818402 1.36818402,1.57272753 1.36818402,1.82424536 L1.36818402,10.52772 C1.36818402,10.7792378 1.57272753,10.9837813 1.82424536,10.9837813 L14.1757546,10.9837813 C14.4272725,10.9837813 14.631816,10.7792378 14.631816,10.52772 L14.631816,3.42046005 C14.631816,3.16894222 14.4272725,2.96439871 14.1757546,2.96439871 L10.2702734,2.96439871 L8.44579996,1.36818402 L1.82424536,1.36818402 Z" id="Shape"></path>
                </g>
            </g>
            <g id="Group-4-Copy-3" transform="translate(1.662917, 41.000000)">
                <text id="Animation" font-family="GoogleSans-Regular, Google Sans" font-size="18" font-weight="normal" letter-spacing="-0.582749981" fill="#FFFFFF">
                    <tspan x="45" y="17">Animation</tspan>
                </text>
                <g id="noun_next-arrow_1439170-(33)" transform="translate(0.000000, 6.000000)" fill="#FFFFFF" fill-rule="nonzero">
                    <polygon id="Path" points="0.837082643 8.32583471 0 7.48875207 3.32583471 4.16291736 0 0.837082643 0.837082643 0 5 4.16291736"></polygon>
                </g>
                <g id="noun_Folder_1439161-(1)" transform="translate(17.000000, 4.000000)" fill="#00B6C4" fill-rule="nonzero">
                    <path d="M14.1757546,12.3519653 L1.82424536,12.3519653 C0.818402075,12.3519653 0,11.5335633 0,10.52772 L0,1.82424536 C0,0.818402075 0.818402075,0 1.82424536,0 L8.95978109,0 L10.7842545,1.59621469 L14.1757546,1.59621469 C15.1815979,1.59621469 16,2.41461677 16,3.42046005 L16,10.52772 C16,11.5335633 15.1815979,12.3519653 14.1757546,12.3519653 Z M1.82424536,1.36818402 C1.57272753,1.36818402 1.36818402,1.57272753 1.36818402,1.82424536 L1.36818402,10.52772 C1.36818402,10.7792378 1.57272753,10.9837813 1.82424536,10.9837813 L14.1757546,10.9837813 C14.4272725,10.9837813 14.631816,10.7792378 14.631816,10.52772 L14.631816,3.42046005 C14.631816,3.16894222 14.4272725,2.96439871 14.1757546,2.96439871 L10.2702734,2.96439871 L8.44579996,1.36818402 L1.82424536,1.36818402 Z" id="Shape"></path>
                </g>
            </g>
            <g id="Group-4-Copy-4" transform="translate(0.000000, 82.000000)">
                <text id="Web_project" font-family="GoogleSans-Regular, Google Sans" font-size="18" font-weight="normal" letter-spacing="-0.582749981" fill="#FFFFFF">
                    <tspan x="47" y="17">Web_project</tspan>
                </text>
                <g id="noun_next-arrow_1439170-(33)" transform="translate(4.162917, 10.162917) rotate(-270.000000) translate(-4.162917, -10.162917) translate(1.662917, 6.000000)" fill="#FFFFFF" fill-rule="nonzero">
                    <polygon id="Path" points="0.837082643 8.32583471 0 7.48875207 3.32583471 4.16291736 0 0.837082643 0.837082643 0 5 4.16291736"></polygon>
                </g>
                <g id="noun_Folder_1439161-(1)" transform="translate(18.662917, 4.000000)" fill="#00B6C4" fill-rule="nonzero">
                    <path d="M14.1757546,12.3519653 L1.82424536,12.3519653 C0.818402075,12.3519653 0,11.5335633 0,10.52772 L0,1.82424536 C0,0.818402075 0.818402075,0 1.82424536,0 L8.95978109,0 L10.7842545,1.59621469 L14.1757546,1.59621469 C15.1815979,1.59621469 16,2.41461677 16,3.42046005 L16,10.52772 C16,11.5335633 15.1815979,12.3519653 14.1757546,12.3519653 Z M1.82424536,1.36818402 C1.57272753,1.36818402 1.36818402,1.57272753 1.36818402,1.82424536 L1.36818402,10.52772 C1.36818402,10.7792378 1.57272753,10.9837813 1.82424536,10.9837813 L14.1757546,10.9837813 C14.4272725,10.9837813 14.631816,10.7792378 14.631816,10.52772 L14.631816,3.42046005 C14.631816,3.16894222 14.4272725,2.96439871 14.1757546,2.96439871 L10.2702734,2.96439871 L8.44579996,1.36818402 L1.82424536,1.36818402 Z" id="Shape"></path>
                </g>
            </g>
            <g id="Group-4-Copy-5" transform="translate(1.662917, 297.000000)">
                <text id="Functions" font-family="GoogleSans-Regular, Google Sans" font-size="18" font-weight="normal" letter-spacing="-0.582749981" fill="#FFFFFF">
                    <tspan x="45" y="17">Functions</tspan>
                </text>
                <g id="noun_next-arrow_1439170-(33)" transform="translate(0.000000, 7.000000)" fill="#FFFFFF" fill-rule="nonzero">
                    <polygon id="Path" points="0.837082643 8.32583471 0 7.48875207 3.32583471 4.16291736 0 0.837082643 0.837082643 0 5 4.16291736"></polygon>
                </g>
                <g id="noun_Folder_1439161-(1)" transform="translate(17.000000, 5.000000)" fill="#00B6C4" fill-rule="nonzero">
                    <path d="M14.1757546,12.3519653 L1.82424536,12.3519653 C0.818402075,12.3519653 0,11.5335633 0,10.52772 L0,1.82424536 C0,0.818402075 0.818402075,0 1.82424536,0 L8.95978109,0 L10.7842545,1.59621469 L14.1757546,1.59621469 C15.1815979,1.59621469 16,2.41461677 16,3.42046005 L16,10.52772 C16,11.5335633 15.1815979,12.3519653 14.1757546,12.3519653 Z M1.82424536,1.36818402 C1.57272753,1.36818402 1.36818402,1.57272753 1.36818402,1.82424536 L1.36818402,10.52772 C1.36818402,10.7792378 1.57272753,10.9837813 1.82424536,10.9837813 L14.1757546,10.9837813 C14.4272725,10.9837813 14.631816,10.7792378 14.631816,10.52772 L14.631816,3.42046005 C14.631816,3.16894222 14.4272725,2.96439871 14.1757546,2.96439871 L10.2702734,2.96439871 L8.44579996,1.36818402 L1.82424536,1.36818402 Z" id="Shape"></path>
                </g>
            </g>
        </g>
        <text id="Develop.js" font-family="GoogleSans-Regular, Google Sans" font-size="20" font-weight="normal" letter-spacing="-0.6475" fill="#FFFFFF">
            <tspan x="469" y="42">Develop.js</tspan>
        </text>
        <text id="Code" font-family="GoogleSans-Regular, Google Sans" font-size="18" font-weight="normal" letter-spacing="-0.582749981" fill="#FFFFFF">
            <tspan x="127.272727" y="108.363636">Code</tspan>
        </text>
        <rect id="Rectangle" fill="#2D2D37" x="127" y="128" width="237" height="2"></rect>
        <g id="Group-2" transform="translate(878.000000, 26.000000)" fill="#7F8090" fill-rule="nonzero">
            <g id="noun_play_1935386" transform="translate(0.000000, 1.571345)">
                <path d="M0.580853745,14.1753401 C0.255575648,14.1753401 0,13.9209184 0,13.5971088 L0,1.87057823 C0,1.19982993 0.348512247,0.586904762 0.940983068,0.251530612 C1.53345389,-0.0838435374 2.23047838,-0.0838435374 2.8229492,0.251530612 L11.9075018,5.46717687 C12.4999726,5.80255102 12.8484848,6.40391156 12.8484848,7.08622449 C12.8484848,7.75697279 12.4999726,8.36989796 11.9075018,8.70527211 L3.3805688,13.6086735 C3.101759,13.7705782 2.75324675,13.6780612 2.5906077,13.4005102 C2.42796866,13.1229592 2.52090526,12.7760204 2.79971505,12.6141156 L11.326648,7.71071429 C11.6519261,7.52568027 11.6867774,7.21343537 11.6867774,7.09778912 C11.6867774,6.97057823 11.6519261,6.66989796 11.326648,6.48486395 L2.23047838,1.25765306 C1.90520028,1.07261905 1.62639049,1.19982993 1.51021974,1.25765306 C1.40566606,1.31547619 1.15009042,1.5005102 1.15009042,1.87057823 L1.15009042,13.5971088 C1.16170749,13.9209184 0.894514768,14.1753401 0.580853745,14.1753401 Z" id="Path"></path>
            </g>
            <g id="noun_Mobile_1935409" transform="translate(44.969697, 0.000000)">
                <path d="M9.5008311,17 L3.34765375,17 C1.5044112,17 0,15.502381 0,13.6674603 L0,3.33253968 C0,1.49761905 1.5044112,0 3.34765375,0 L9.5008311,0 C11.3440736,0 12.8484848,1.49761905 12.8484848,3.33253968 L12.8484848,13.6674603 C12.8484848,15.502381 11.3440736,17 9.5008311,17 Z M3.34765375,1.33571429 C2.24984017,1.33571429 1.35532541,2.22619048 1.35532541,3.31904762 L1.35532541,13.6539683 C1.35532541,14.7468254 2.24984017,15.6373016 3.34765375,15.6373016 L9.5008311,15.6373016 C10.5986447,15.6373016 11.4931594,14.7468254 11.4931594,13.6539683 L11.4931594,3.33253968 C11.4931594,2.23968254 10.5986447,1.34920635 9.5008311,1.34920635 L3.34765375,1.34920635 L3.34765375,1.33571429 Z" id="Shape"></path>
                <path d="M8.33525125,14.1531746 L4.5132336,14.1531746 C4.13374249,14.1531746 3.8355709,13.8563492 3.8355709,13.4785714 C3.8355709,13.1007937 4.13374249,12.8039683 4.5132336,12.8039683 L8.3488045,12.8039683 C8.72829561,12.8039683 9.0264672,13.1007937 9.0264672,13.4785714 C9.0264672,13.8563492 8.71474236,14.1531746 8.33525125,14.1531746 Z" id="Path"></path>
            </g>
            <g id="noun_Computer_1935345" transform="translate(89.939394, 1.571345)">
                <path d="M13.5168455,11.6683304 L2.54376059,11.6683304 C1.13471673,11.6683304 0,10.5263236 0,9.13605442 L0,2.53227595 C0,1.12959369 1.14718615,0 2.54376059,0 L13.5168455,0 C14.9258893,0 16.0606061,1.1420068 16.0606061,2.53227595 L16.0606061,9.1236413 C16.0606061,10.5263236 14.9258893,11.6683304 13.5168455,11.6683304 L13.5168455,11.6683304 Z M2.54376059,1.24131174 C1.83300395,1.24131174 1.24694146,1.82472826 1.24694146,2.53227595 L1.24694146,9.1236413 C1.24694146,9.831189 1.83300395,10.4146055 2.54376059,10.4146055 L13.5168455,10.4146055 C14.2276021,10.4146055 14.8136646,9.831189 14.8136646,9.1236413 L14.8136646,2.53227595 C14.8136646,1.82472826 14.2276021,1.24131174 13.5168455,1.24131174 L2.54376059,1.24131174 Z M11.3471673,13.9275177 L4.72590815,13.9275177 C4.37676454,13.9275177 4.10243742,13.6544292 4.10243742,13.3068619 C4.10243742,12.9592946 4.37676454,12.686206 4.72590815,12.686206 L11.3471673,12.686206 C11.6963109,12.686206 11.9706381,12.9592946 11.9706381,13.3068619 C11.9706381,13.6544292 11.6838415,13.9275177 11.3471673,13.9275177 Z" id="Shape"></path>
                <path d="M15.4371353,9.2601856 L0.773103708,9.2601856 C0.423960098,9.2601856 0.149632976,8.98709701 0.149632976,8.63952972 C0.149632976,8.29196244 0.423960098,8.01887385 0.773103708,8.01887385 L15.4371353,8.01887385 C15.7862789,8.01887385 16.0606061,8.29196244 16.0606061,8.63952972 C16.0606061,8.98709701 15.7862789,9.2601856 15.4371353,9.2601856 Z" id="Path"></path>
            </g>
        </g>
        <g id="Group-3" transform="translate(102.000000, 26.000000)" fill="#FFFFFF" font-family="GoogleSans-Regular, Google Sans" font-size="15" font-weight="normal" letter-spacing="-0.485624984">
            <text id="Files">
                <tspan x="0" y="14">Files</tspan>
            </text>
            <text id="Edits">
                <tspan x="64" y="14">Edits</tspan>
            </text>
            <text id="View">
                <tspan x="131" y="14">View</tspan>
            </text>
            <text id="Help">
                <tspan x="198" y="14">Help</tspan>
            </text>
        </g>
        <rect id="Rectangle" fill="url(#linearGradient-1)" x="0" y="440" width="1024" height="298"></rect>
    </g>
</svg>