<?xml version="1.0" encoding="UTF-8"?>
<svg width="100px" height="100px" viewBox="0 0 100 100" version="1.1" xmlns="http://www.w3.org/2000/svg" xmlns:xlink="http://www.w3.org/1999/xlink">
    <title>Group 8</title>
    <defs>
        <linearGradient x1="5.05050505%" y1="3.53535354%" x2="115.656566%" y2="124.747475%" id="linearGradient-1">
            <stop stop-color="#595959" offset="0%"></stop>
            <stop stop-color="#595959" stop-opacity="0" offset="100%"></stop>
        </linearGradient>
        <linearGradient x1="-21.1538462%" y1="-57.6923077%" x2="65.3846154%" y2="95.1923077%" id="linearGradient-2">
            <stop stop-color="#FF83B4" offset="0%"></stop>
            <stop stop-color="#819CFF" stop-opacity="0" offset="100%"></stop>
        </linearGradient>
        <linearGradient x1="-1.28205128%" y1="-1.28205128%" x2="101.282051%" y2="120.175385%" id="linearGradient-3">
            <stop stop-color="#F8B6D0" offset="0%"></stop>
            <stop stop-color="#FB8BD0" offset="28.125%"></stop>
            <stop stop-color="#DBB6F8" stop-opacity="0" offset="100%"></stop>
        </linearGradient>
        <linearGradient x1="83.4945672%" y1="10.32065%" x2="123.462489%" y2="110.65267%" id="linearGradient-4">
            <stop stop-color="#F63B85" offset="16.2473%"></stop>
            <stop stop-color="#A840A6" offset="39.0794%"></stop>
            <stop stop-color="#8443B4" offset="54.7117%"></stop>
            <stop stop-color="#5746C8" offset="94.2708%"></stop>
        </linearGradient>
        <path d="M11.7175,6.57251665 C11.3948,6.89521665 11.34,7.39231665 11.5194,7.81201665 C11.8288,8.53551665 12,9.33211665 12,10.1687167 C12,13.4824167 9.3137,16.1687167 6,16.1687167 C2.6863,16.1687167 0,13.4824167 0,10.1687167 C0,6.85501665 2.6863,4.16871665 6,4.16871665 C6.8366,4.16871665 7.6332,4.33991665 8.3567,4.64931665 C8.7764,4.82871665 9.2735,4.77391665 9.5962,4.45121665 L13.6528,0.394516654 C14.2031,-0.155683346 15.124,-0.126883346 15.7098,0.458916654 C16.2956,1.04471665 16.3244,1.96561665 15.7742,2.51591665 L11.7175,6.57251665 Z" id="path-5"></path>
        <linearGradient x1="26.2102908%" y1="-10.6656722%" x2="74.9853121%" y2="36.3672385%" id="linearGradient-7">
            <stop stop-color="#FCCBD2" offset="0%"></stop>
            <stop stop-color="#FCCBD2" stop-opacity="0" offset="100%"></stop>
        </linearGradient>
    </defs>
    <g id="Page-1" stroke="none" stroke-width="1" fill="none" fill-rule="evenodd">
        <g id="Group-8">
            <rect id="Rectangle" fill="#141414" fill-rule="nonzero" x="0" y="0" width="100" height="100" rx="18"></rect>
            <rect id="Rectangle" stroke="url(#linearGradient-1)" x="0.5" y="0.5" width="99" height="99" rx="17.5"></rect>
            <circle id="Oval" stroke="url(#linearGradient-2)" cx="49" cy="49" r="26"></circle>
            <circle id="Oval" stroke="url(#linearGradient-3)" cx="49" cy="49" r="19.5"></circle>
            <g id="Group" transform="translate(43.000000, 38.831283)">
                <path d="M11.7175,6.57251665 C11.3948,6.89521665 11.34,7.39231665 11.5194,7.81201665 C11.8288,8.53551665 12,9.33211665 12,10.1687167 C12,13.4824167 9.3137,16.1687167 6,16.1687167 C2.6863,16.1687167 0,13.4824167 0,10.1687167 C0,6.85501665 2.6863,4.16871665 6,4.16871665 C6.8366,4.16871665 7.6332,4.33991665 8.3567,4.64931665 C8.7764,4.82871665 9.2735,4.77391665 9.5962,4.45121665 L13.6528,0.394516654 C14.2031,-0.155683346 15.124,-0.126883346 15.7098,0.458916654 C16.2956,1.04471665 16.3244,1.96561665 15.7742,2.51591665 L11.7175,6.57251665 Z" id="Path" fill="url(#linearGradient-4)"></path>
                <g id="Clipped">
                    <mask id="mask-6" fill="white">
                        <use xlink:href="#path-5"></use>
                    </mask>
                    <g id="Path"></g>
                    <path d="M13.6528,0.394516654 L13.2993,0.0410166545 L13.2993,0.0410166545 L13.6528,0.394516654 Z M15.7098,0.458916654 L16.0633,0.105416654 L16.0633,0.105416654 L15.7098,0.458916654 Z M15.7742,2.51591665 L15.4206,2.16231665 L15.4206,2.16231665 L15.7742,2.51591665 Z M8.3567,4.64931665 L8.1602,5.10901665 L8.3567,4.64931665 Z M9.5962,4.45121665 L9.2427,4.09761665 L9.5962,4.45121665 Z M11.5194,7.81201665 L11.0597,8.00851665 L11.5194,7.81201665 Z M11.7175,6.57251665 L12.0711,6.92601665 L11.7175,6.57251665 Z M11.0597,8.00851665 C11.343,8.67101665 11.5,9.40091665 11.5,10.1687167 L12.5,10.1687167 C12.5,9.26331665 12.3146,8.39991665 11.9792,7.61541665 L11.0597,8.00851665 Z M11.5,10.1687167 C11.5,13.2063167 9.0376,15.6687167 6,15.6687167 L6,16.6687167 C9.5899,16.6687167 12.5,13.7586167 12.5,10.1687167 L11.5,10.1687167 Z M6,15.6687167 C2.9624,15.6687167 0.5,13.2063167 0.5,10.1687167 L-0.5,10.1687167 C-0.5,13.7586167 2.4101,16.6687167 6,16.6687167 L6,15.6687167 Z M0.5,10.1687167 C0.5,7.13121665 2.9624,4.66871665 6,4.66871665 L6,3.66871665 C2.4101,3.66871665 -0.5,6.57891665 -0.5,10.1687167 L0.5,10.1687167 Z M6,4.66871665 C6.7678,4.66871665 7.4977,4.82581665 8.1602,5.10901665 L8.5533,4.18951665 C7.7688,3.85411665 6.9054,3.66871665 6,3.66871665 L6,4.66871665 Z M9.9498,4.80471665 L14.0064,0.748116654 L13.2993,0.0410166545 L9.2427,4.09761665 L9.9498,4.80471665 Z M14.0064,0.748116654 C14.3408,0.413616654 14.9445,0.400816654 15.3562,0.812516654 L16.0633,0.105416654 C15.3035,-0.654483346 14.0653,-0.724983346 13.2993,0.0410166545 L14.0064,0.748116654 Z M15.3562,0.812516654 C15.7679,1.22421665 15.7551,1.82791665 15.4206,2.16231665 L16.1277,2.86941665 C16.8937,2.10341665 16.8232,0.865216654 16.0633,0.105416654 L15.3562,0.812516654 Z M15.4206,2.16231665 L11.364,6.21891665 L12.0711,6.92601665 L16.1277,2.86941665 L15.4206,2.16231665 Z M8.1602,5.10901665 C8.7324,5.35371665 9.4573,5.29721665 9.9498,4.80471665 L9.2427,4.09761665 C9.0897,4.25051665 8.8203,4.30371665 8.5533,4.18951665 L8.1602,5.10901665 Z M11.9792,7.61541665 C11.865,7.34841665 11.9182,7.07901665 12.0711,6.92601665 L11.364,6.21891665 C10.8715,6.71141665 10.815,7.43631665 11.0597,8.00851665 L11.9792,7.61541665 Z" id="Shape" fill="url(#linearGradient-7)" fill-rule="nonzero" mask="url(#mask-6)"></path>
                </g>
            </g>
        </g>
    </g>
</svg>