<?xml version="1.0" encoding="UTF-8"?>
<svg width="100px" height="100px" viewBox="0 0 100 100" version="1.1" xmlns="http://www.w3.org/2000/svg" xmlns:xlink="http://www.w3.org/1999/xlink">
    <title>Group 10</title>
    <defs>
        <linearGradient x1="5.05050505%" y1="3.53535354%" x2="115.656566%" y2="124.747475%" id="linearGradient-1">
            <stop stop-color="#595959" offset="0%"></stop>
            <stop stop-color="#595959" stop-opacity="0" offset="100%"></stop>
        </linearGradient>
        <linearGradient x1="65.1162791%" y1="23.3574981%" x2="41.0399792%" y2="62.6037801%" id="linearGradient-2">
            <stop stop-color="#E6A3FF" offset="0%"></stop>
            <stop stop-color="#F379FF" offset="53.9864%"></stop>
            <stop stop-color="#7930DC" stop-opacity="0.400342734" offset="76.6883322%"></stop>
            <stop stop-color="#6E00C5" stop-opacity="0" offset="100%"></stop>
        </linearGradient>
        <linearGradient x1="0%" y1="28.0466501%" x2="87.2093023%" y2="71.5887753%" id="linearGradient-3">
            <stop stop-color="#FFA4C8" offset="2.95438%"></stop>
            <stop stop-color="#FF75B1" offset="36.5582%"></stop>
            <stop stop-color="#3360FF" stop-opacity="0" offset="100%"></stop>
        </linearGradient>
        <linearGradient x1="9.14619565%" y1="49.3496899%" x2="157.271098%" y2="51.6118664%" id="linearGradient-4">
            <stop stop-color="#FF99D6" offset="0%"></stop>
            <stop stop-color="#5746C8" stop-opacity="0" offset="100%"></stop>
        </linearGradient>
        <linearGradient x1="-10.6391304%" y1="49.0548204%" x2="125.065217%" y2="51.8801701%" id="linearGradient-5">
            <stop stop-color="#DE97FF" offset="35.5903%"></stop>
            <stop stop-color="#0B0010" stop-opacity="0" offset="100%"></stop>
        </linearGradient>
        <linearGradient x1="7.69130435%" y1="0%" x2="65.3826087%" y2="95.1921739%" id="linearGradient-6">
            <stop stop-color="#FF83B4" offset="0%"></stop>
            <stop stop-color="#819CFF" stop-opacity="0" offset="100%"></stop>
        </linearGradient>
        <linearGradient x1="16.9805182%" y1="35.5067976%" x2="62.3580425%" y2="70.8643437%" id="linearGradient-7">
            <stop stop-color="#FF2F81" offset="0%"></stop>
            <stop stop-color="#5746C8" offset="100%"></stop>
        </linearGradient>
        <rect id="path-8" x="0" y="0" width="16" height="10"></rect>
        <linearGradient x1="28.0175095%" y1="38.4849406%" x2="49.7451694%" y2="61.3876928%" id="linearGradient-10">
            <stop stop-color="#FF8FBC" offset="0%"></stop>
            <stop stop-color="#6645C1" offset="100%"></stop>
        </linearGradient>
        <path d="M2.393,7.4743 C0.787,6.585 0.5,4.4202 1.898,3.2292 C3.529,1.839 5.644,1 7.955,1 C10.266,1 12.381,1.839 14.012,3.2292 C15.41,4.4202 15.123,6.585 13.517,7.4743 C11.868,8.3868 9.972,8.9062 7.955,8.9062 C5.938,8.9062 4.042,8.3868 2.393,7.4743 Z" id="path-11"></path>
        <linearGradient x1="43.0434783%" y1="44.3485217%" x2="91.7391304%" y2="106.957217%" id="linearGradient-13">
            <stop stop-color="#FF2E82" offset="0%"></stop>
            <stop stop-color="#6C45BF" offset="100%"></stop>
        </linearGradient>
        <linearGradient x1="-3.74205607%" y1="-3.73757009%" x2="60.7514019%" y2="71.4953271%" id="linearGradient-14">
            <stop stop-color="#F8B6D0" offset="0%"></stop>
            <stop stop-color="#FB8BD0" offset="28.125%"></stop>
            <stop stop-color="#DBB6F8" stop-opacity="0" offset="100%"></stop>
        </linearGradient>
    </defs>
    <g id="Page-1" stroke="none" stroke-width="1" fill="none" fill-rule="evenodd">
        <g id="Group-10">
            <rect id="Rectangle" fill="#141414" fill-rule="nonzero" x="0" y="0" width="100" height="100" rx="18"></rect>
            <rect id="Rectangle" stroke="url(#linearGradient-1)" x="0.5" y="0.5" width="99" height="99" rx="17.5"></rect>
            <g id="Group-13" transform="translate(23.500000, 26.000000)">
                <path d="M51,3 C51,1.3431 49.657,1.77635684e-14 48,1.77635684e-14 L11,1.77635684e-14 C9.343,1.77635684e-14 8,1.3431 8,3 L8,19 C8,20.6569 9.336,22 10.993,22 C19.266,22 41.882,22 42.5,22 C44.923,22 48.754,22 50.809,24.7305 C50.869,24.8095 51,24.7687 51,24.6697 L51,3 Z" id="Path" stroke="url(#linearGradient-2)" fill="#141414" fill-rule="nonzero"></path>
                <path d="M0,15 C0,13.3431 1.343,12 3,12 L40,12 C41.657,12 43,13.3431 43,15 L43,31 C43,32.6569 41.664,34 40.007,34 C31.734,34 9.118,34 8.5,34 C6.077,34 2.246,34 0.191,36.7305 C0.131,36.8095 0,36.7687 0,36.6697 L0,15 Z" id="Path" stroke="url(#linearGradient-3)" fill="#141414" fill-rule="nonzero"></path>
                <line x1="10" y1="20" x2="33" y2="20" id="Path" stroke="url(#linearGradient-4)" stroke-linecap="round"></line>
                <line x1="10" y1="26" x2="33" y2="26" id="Path" stroke="url(#linearGradient-5)" stroke-linecap="round"></line>
                <g id="Group" transform="translate(30.000000, 26.000000)">
                    <circle id="Oval" fill="#141414" fill-rule="nonzero" cx="11.5" cy="11.5" r="11.5"></circle>
                    <circle id="Oval" stroke="url(#linearGradient-6)" cx="11.5" cy="11.5" r="11.5"></circle>
                </g>
                <g id="Group" transform="translate(33.638000, 40.093800)">
                    <path d="M2.393,7.4743 C0.787,6.585 0.5,4.4202 1.898,3.2292 C3.529,1.839 5.644,1 7.955,1 C10.266,1 12.381,1.839 14.012,3.2292 C15.41,4.4202 15.123,6.585 13.517,7.4743 C11.868,8.3868 9.972,8.9062 7.955,8.9062 C5.938,8.9062 4.042,8.3868 2.393,7.4743 Z" id="Path" fill="url(#linearGradient-7)"></path>
                    <g id="Clipped">
                        <mask id="mask-9" fill="white">
                            <use xlink:href="#path-8"></use>
                        </mask>
                        <g id="Rectangle"></g>
                        <path d="M2.222,3.6097 C3.766,2.2938 5.767,1.5 7.955,1.5 L7.955,0.5 C5.521,0.5 3.291,1.3843 1.573,2.8486 L2.222,3.6097 Z M7.955,1.5 C10.143,1.5 12.144,2.2938 13.688,3.6097 L14.337,2.8486 C12.619,1.3843 10.389,0.5 7.955,0.5 L7.955,1.5 Z M13.274,7.0369 C11.698,7.9093 9.886,8.4062 7.955,8.4062 L7.955,9.4062 C10.059,9.4062 12.038,8.8642 13.759,7.9118 L13.274,7.0369 Z M7.955,8.4062 C6.025,8.4062 4.212,7.9093 2.636,7.0369 L2.151,7.9118 C3.872,8.8642 5.851,9.4062 7.955,9.4062 L7.955,8.4062 Z M13.688,3.6097 C14.801,4.5581 14.598,6.3045 13.274,7.0369 L13.759,7.9118 C15.649,6.8655 16.019,4.2823 14.337,2.8486 L13.688,3.6097 Z M1.573,2.8486 C-0.109,4.2823 0.261,6.8655 2.151,7.9118 L2.636,7.0369 C1.312,6.3045 1.109,4.5581 2.222,3.6097 L1.573,2.8486 Z" id="Shape" fill="url(#linearGradient-10)" fill-rule="nonzero" mask="url(#mask-9)"></path>
                        <mask id="mask-12" fill="white">
                            <use xlink:href="#path-11"></use>
                        </mask>
                        <g id="Path"></g>
                    </g>
                </g>
                <g id="Group" transform="translate(37.906250, 30.312450)">
                    <circle id="Oval" fill="url(#linearGradient-13)" fill-rule="nonzero" cx="3.59375" cy="3.59375" r="3.59375"></circle>
                    <circle id="Oval" stroke="url(#linearGradient-14)" stroke-width="0.5" cx="3.59375" cy="3.59375" r="3.34375"></circle>
                </g>
            </g>
        </g>
    </g>
</svg>