<?xml version="1.0" encoding="UTF-8"?>
<svg width="100px" height="100px" viewBox="0 0 100 100" version="1.1" xmlns="http://www.w3.org/2000/svg" xmlns:xlink="http://www.w3.org/1999/xlink">
    <title>Group 17</title>
    <defs>
        <linearGradient x1="5.05050505%" y1="3.53535354%" x2="115.656566%" y2="124.747475%" id="linearGradient-1">
            <stop stop-color="#595959" offset="0%"></stop>
            <stop stop-color="#595959" stop-opacity="0" offset="100%"></stop>
        </linearGradient>
        <linearGradient x1="30.2600187%" y1="6.28938851%" x2="54.3123732%" y2="50.3247622%" id="linearGradient-2">
            <stop stop-color="#FFA4C8" offset="0%"></stop>
            <stop stop-color="#FE90EC" stop-opacity="0.87" offset="31.9562%"></stop>
            <stop stop-color="#6989FF" stop-opacity="0" offset="100%"></stop>
        </linearGradient>
        <linearGradient x1="-3.90453347%" y1="41.0437985%" x2="89.0460163%" y2="49.6407876%" id="linearGradient-3">
            <stop stop-color="#FFA4C8" offset="0%"></stop>
            <stop stop-color="#FE7FB6" offset="29.6311%"></stop>
            <stop stop-color="#BFA2FF" stop-opacity="0" offset="76.5625%"></stop>
        </linearGradient>
        <linearGradient x1="26.7987202%" y1="18.5267681%" x2="37.432841%" y2="76.5768722%" id="linearGradient-4">
            <stop stop-color="#FFA4C8" offset="0%"></stop>
            <stop stop-color="#FC80D9" offset="40.5825%"></stop>
            <stop stop-color="#8B62FF" stop-opacity="0" offset="100%"></stop>
        </linearGradient>
        <linearGradient x1="29.7629025%" y1="16.1835326%" x2="61.7171634%" y2="144.15326%" id="linearGradient-5">
            <stop stop-color="#F63B85" offset="0%"></stop>
            <stop stop-color="#5746C8" offset="100%"></stop>
        </linearGradient>
        <linearGradient x1="17.2398596%" y1="18.1538652%" x2="45.0348843%" y2="77.8964718%" id="linearGradient-6">
            <stop stop-color="#FFA4C8" offset="0%"></stop>
            <stop stop-color="#CC3F96" offset="70.15%"></stop>
            <stop stop-color="#AE5CB5" offset="100%"></stop>
        </linearGradient>
    </defs>
    <g id="Page-1" stroke="none" stroke-width="1" fill="none" fill-rule="evenodd">
        <g id="Group-17">
            <rect id="Rectangle" fill="#141414" fill-rule="nonzero" x="0" y="0" width="100" height="100" rx="18"></rect>
            <rect id="Rectangle" stroke="url(#linearGradient-1)" x="0.5" y="0.5" width="99" height="99" rx="17.5"></rect>
            <path d="M42.61,41.501 C42.978,43.081 44.176,44.29 45.742,44.661 C47.376,45.008 48.929,44.384 49.878,43.165 C49.939,43.087 50.072,43.129 50.072,43.228 L50.072,50.146 L39.938,50.146 C39.846,50.146 39.846,50.239 39.938,50.239 C41.32,51.075 42.149,52.655 41.873,54.422 C41.596,56.281 40.122,57.675 38.28,57.861 C35.792,58.14 33.673,56.188 33.673,53.771 C33.673,52.284 34.41,50.982 35.608,50.239 C35.7,50.239 35.608,50.146 35.608,50.146 L25.75,50.146 C24.645,46.985 24,43.639 24,39.921 C24,24.025 43.162,20.586 49.98,33.042 L49.98,38.008 C49.98,38.107 49.846,38.149 49.785,38.071 C49.028,37.107 47.838,36.481 46.571,36.481 C44.084,36.481 42.057,38.898 42.61,41.501 Z" id="Path" stroke="url(#linearGradient-2)"></path>
            <path d="M57.442,62.973 C57.074,64.554 55.876,65.762 54.31,66.134 C52.56,66.506 50.993,65.762 50.072,64.554 C50.072,64.461 49.98,64.554 49.98,64.554 L49.98,74.407 C49.98,74.5 49.888,74.5 49.888,74.5 C45.281,72.176 30.725,64.275 25.75,50.146 L35.516,50.146 C35.608,50.146 35.608,50.239 35.516,50.239 C34.134,51.075 33.305,52.655 33.581,54.422 C33.858,56.281 35.332,57.675 37.174,57.861 C39.662,58.14 41.781,56.188 41.781,53.771 C41.781,52.284 41.044,50.982 39.846,50.239 C39.754,50.239 39.846,50.146 39.846,50.146 L49.98,50.146 L49.98,59.627 C49.98,59.72 50.072,59.72 50.072,59.627 C50.809,58.605 52.007,57.954 53.389,57.954 C55.968,57.954 57.995,60.278 57.442,62.973 Z" id="Path" stroke="url(#linearGradient-3)"></path>
            <path d="M76.052,39.921 C76.052,43.639 75.407,46.985 74.302,50.053 L65.549,50.053 C66.287,49.123 66.563,47.915 66.379,46.613 C66.102,45.033 64.812,43.732 63.246,43.453 C60.575,42.895 58.271,44.94 58.271,47.543 C58.271,48.472 58.64,49.402 59.193,50.146 L50.072,50.146 L50.072,43.174 C50.072,43.081 49.98,43.081 49.98,43.174 C49.059,44.382 47.493,45.126 45.742,44.754 C44.176,44.382 42.978,43.174 42.61,41.594 C42.057,38.898 44.084,36.574 46.663,36.574 C48.045,36.574 49.243,37.225 49.98,38.247 C49.98,38.34 50.072,38.247 50.072,38.247 L50.072,33.042 C56.89,20.586 76.052,24.025 76.052,39.921 Z" id="Path" stroke="url(#linearGradient-4)"></path>
            <g id="Group" transform="translate(49.822000, 43.203000)">
                <path d="M24.337,6.9429998 C24.407,6.9429998 24.455,7.0119998 24.431,7.0769998 C19.321,21.1219998 4.934,28.9799998 0.342,31.2969998 C0.342,31.2969998 0.25,31.2969998 0.25,31.2039998 L0.25,21.3509998 C0.25,21.2579998 0.342,21.2579998 0.342,21.3509998 C1.263,22.5589998 2.83,23.3029998 4.58,22.9309998 C6.146,22.5589998 7.344,21.3509998 7.712,19.7709998 C8.265,17.0749998 6.238,14.7509998 3.659,14.7509998 C2.277,14.7509998 1.079,15.4019998 0.342,16.4239998 C0.342,16.5169998 0.25,16.4239998 0.25,16.4239998 L0.25,7.0429998 C0.25,6.9869998 0.295,6.9429998 0.35,6.9429998 L9.186,6.9429998 C9.278,6.9429998 9.278,6.8499998 9.278,6.8499998 C8.634,5.9199998 8.357,4.8049998 8.541,3.5029998 C8.818,1.9229998 10.108,0.621999804 11.674,0.342999804 C14.345,-0.215000196 16.649,1.8299998 16.649,4.4329998 C16.649,5.3619998 16.372,6.1989998 15.82,6.8499998 C15.82,6.8499998 15.82,6.9429998 15.912,6.9429998 L24.337,6.9429998 Z" id="Path" fill="url(#linearGradient-5)" fill-rule="nonzero"></path>
                <path d="M0.342,31.2969998 L0.342,31.5469998 L0.402,31.5469998 L0.455,31.5199998 C5.047,29.2039998 19.519,21.3079998 24.666,7.1619998 C24.748,6.9359998 24.582,6.6929998 24.337,6.6929998 L16.251,6.6929998 C16.686,6.0459998 16.899,5.2699998 16.899,4.4329998 C16.899,1.6819998 14.461,-0.492000196 11.626,0.0969998042 C9.957,0.395999804 8.589,1.7789998 8.295,3.4599998 L8.295,3.4599998 L8.294,3.4679998 C8.121,4.6929998 8.338,5.7719998 8.881,6.6929998 L0.35,6.6929998 C0.157,6.6929998 0,6.8489998 0,7.0429998 L0,16.4239998 L0,16.5269998 L0.072,16.5999998 L0.25,16.4239998 C0.072,16.5999998 0.072,16.5999998 0.073,16.5999998 L0.073,16.5999998 L0.073,16.5999998 L0.073,16.6009998 L0.074,16.6019998 L0.076,16.6039998 L0.083,16.6099998 C0.088,16.6149998 0.095,16.6209998 0.104,16.6289998 C0.118,16.6399998 0.146,16.6639998 0.183,16.6819998 C0.202,16.6919998 0.233,16.7049998 0.272,16.7119998 C0.311,16.7179998 0.374,16.7199998 0.44,16.6869998 C0.52,16.6459998 0.558,16.5829998 0.576,16.5279998 C1.269,15.5939998 2.377,15.0009998 3.659,15.0009998 C6.083,15.0009998 7.986,17.1819998 7.468,19.7169998 C7.12,21.2029998 5.996,22.3369998 4.525,22.6869998 C2.901,23.0309998 1.446,22.3559998 0.574,21.2409998 C0.54,21.1389998 0.458,21.0309998 0.296,21.0309998 C0.071,21.0309998 0,21.2399998 0,21.3509998 L0,31.2039998 C0,31.2709998 0.017,31.3369998 0.056,31.3959998 C0.094,31.4529998 0.142,31.4879998 0.183,31.5089998 C0.224,31.5289998 0.261,31.5379998 0.286,31.5419998 C0.299,31.5439998 0.311,31.5459998 0.32,31.5459998 L0.333,31.5469998 L0.338,31.5469998 L0.34,31.5469998 L0.341,31.5469998 L0.342,31.5469998 L0.342,31.5469998 C0.342,31.5469998 0.342,31.5469998 0.342,31.2969998 Z" id="Path" stroke="url(#linearGradient-6)" stroke-width="0.5"></path>
            </g>
        </g>
    </g>
</svg>